HIERARCHY
ROOT cup1
{
	OFFSET 0.000000 0.000000 0.000000
	CHANNELS 6 Xposition Yposition Zposition Yrotation Xrotation Zrotation
	End Site
	{
		OFFSET 0.000000 0.000000 0.000000
	}
}
MOTION
Frames: 120
Frame Time: 0.008333334
1.863184 5.191224 4.483348 58.196140 2.292749 -9.352844 
1.865123 5.191021 4.479801 59.227910 2.325758 -9.510498 
1.867472 5.191104 4.477672 60.032680 2.713760 -10.036320 
1.868665 5.191402 4.475137 60.882390 2.569155 -10.059420 
1.868832 5.191453 4.472137 61.863780 2.637028 -10.272830 
1.866172 5.191978 4.468828 62.910300 2.537933 -10.485810 
1.861751 5.193005 4.464897 64.036250 2.424201 -10.683170 
1.856432 5.193347 4.461442 65.089010 2.198629 -10.821230 
1.852269 5.193099 4.458224 65.966610 2.206880 -10.921080 
1.847548 5.193691 4.454762 66.137840 1.637432 -10.887660 
1.844546 5.192810 4.451898 65.873040 1.205400 -10.929630 
1.841434 5.193251 4.447671 65.200600 0.871947 -11.168150 
1.839149 5.193920 4.443162 64.364590 0.080928 -11.218990 
1.835493 5.194821 4.437731 63.323810 -0.490479 -11.358400 
1.831523 5.195168 4.432445 62.278420 -1.285370 -11.311680 
1.826345 5.195099 4.426344 61.290470 -2.117889 -11.233890 
1.821157 5.194564 4.418659 60.334460 -2.945465 -11.118620 
1.816413 5.194482 4.412795 59.541260 -3.631348 -11.241000 
1.813663 5.194555 4.408322 59.335320 -3.983246 -11.067230 
1.813559 5.195428 4.408546 59.439640 -3.937469 -10.989440 
1.815243 5.196919 4.411441 59.856520 -4.137360 -10.777100 
1.817066 5.198986 4.414415 60.077460 -3.998383 -10.517640 
1.818426 5.201245 4.417030 60.256510 -3.944214 -10.144230 
1.819359 5.204004 4.419265 60.260560 -4.012451 -9.867615 
1.820181 5.206765 4.420540 60.245980 -4.020050 -9.715057 
1.820643 5.209609 4.422175 60.392190 -4.404175 -9.318787 
1.820223 5.212175 4.424151 60.439700 -4.565887 -9.038391 
1.819528 5.214863 4.426802 60.540510 -4.536469 -8.814697 
1.818408 5.217987 4.430223 60.534620 -4.696930 -8.548828 
1.817035 5.220880 4.433773 60.650390 -4.874420 -8.054138 
1.814484 5.224194 4.437704 60.531170 -5.247986 -7.538513 
1.812167 5.226836 4.441159 60.579740 -5.327515 -7.213593 
1.809386 5.229491 4.445112 60.673390 -5.707397 -6.657776 
1.806626 5.231590 4.449687 60.712510 -5.747528 -6.263672 
1.804545 5.234186 4.456284 60.700960 -5.625488 -5.803772 
1.804144 5.236493 4.465745 60.860910 -5.793610 -5.006775 
1.802670 5.239023 4.475745 60.684650 -5.679718 -4.317871 
1.801282 5.241253 4.482977 60.604100 -5.656464 -3.620880 
1.796870 5.242882 4.491093 60.385620 -5.733521 -3.003326 
1.793946 5.243492 4.496729 60.319210 -5.768707 -2.592255 
1.791921 5.243092 4.501358 60.444190 -5.744019 -2.083374 
1.791616 5.243045 4.507084 60.749020 -5.631622 -1.854645 
1.791515 5.242731 4.514674 61.142150 -5.411224 -1.425385 
1.792392 5.242886 4.521093 61.795410 -5.108215 -1.217926 
1.794780 5.242922 4.528919 62.739400 -4.792938 -0.736359 
1.798692 5.243332 4.537316 64.219070 -4.139252 -0.819244 
1.804486 5.244228 4.545645 65.902110 -3.470459 -0.728272 
1.811362 5.244067 4.551698 67.870440 -2.646973 -0.739349 
1.817263 5.244117 4.555485 69.919840 -2.129700 -0.973297 
1.821025 5.243079 4.557646 71.925440 -1.786621 -1.179962 
1.824350 5.241606 4.555602 74.087010 -1.496490 -1.530487 
1.825797 5.239040 4.553028 76.213530 -1.022339 -2.259399 
1.827573 5.237096 4.548794 78.522710 -0.762482 -2.670959 
1.828293 5.234713 4.541907 80.890580 -0.725342 -3.048950 
1.828718 5.233356 4.533287 83.536930 -0.368439 -3.715790 
1.828421 5.231882 4.523332 86.124100 -0.104187 -4.377655 
1.827066 5.230206 4.512438 88.883380 0.262425 -4.995789 
1.824304 5.229221 4.503233 91.546520 0.745891 -5.516266 
1.822034 5.228024 4.495484 94.116470 0.778083 -5.834778 
1.820150 5.226487 4.488613 96.168130 1.276745 -6.047607 
1.820457 5.225395 4.483395 97.996640 1.499875 -5.986877 
1.822367 5.223895 4.478716 99.675930 1.940284 -6.294342 
1.824437 5.222301 4.474245 100.985100 2.197881 -6.436096 
1.826680 5.218953 4.471831 102.260400 2.803240 -6.826538 
1.829785 5.217190 4.469618 103.297400 3.019170 -6.696503 
1.832369 5.214728 4.468817 104.126600 3.309504 -6.526489 
1.834162 5.213108 4.466641 105.015800 3.648508 -6.577606 
1.837504 5.210582 4.465686 105.785700 3.741282 -6.529510 
1.840691 5.208528 4.464564 106.153100 3.979953 -6.358978 
1.844396 5.206733 4.463607 106.317200 4.240790 -6.288971 
1.849432 5.204571 4.463494 106.386800 4.478969 -6.143555 
1.854225 5.202611 4.463190 106.305300 4.858742 -6.305511 
1.859827 5.200394 4.462132 106.057700 5.259454 -6.455963 
1.865117 5.197889 4.459809 105.730900 5.302304 -6.384796 
1.869885 5.194829 4.455275 105.338700 5.526777 -6.683411 
1.871000 5.192551 4.448031 104.805700 5.737963 -7.272644 
1.869966 5.190580 4.439916 104.409700 5.794546 -7.885895 
1.867743 5.187674 4.432565 103.654900 5.315366 -8.368011 
1.865080 5.186742 4.424315 102.883800 5.059618 -9.087341 
1.861295 5.184866 4.415779 102.049800 4.583742 -9.591492 
1.855677 5.182390 4.405208 101.101300 4.309416 -10.540620 
1.848186 5.179993 4.393381 100.442400 3.656400 -11.421840 
1.839388 5.177351 4.379913 99.956170 3.117151 -12.384580 
1.828786 5.173621 4.364695 99.678020 2.536307 -13.509550 
1.816399 5.169703 4.347978 99.446380 1.977452 -14.908750 
1.804723 5.165552 4.331502 99.560040 1.200356 -15.618530 
1.803373 5.165911 4.330673 99.797990 1.153935 -15.672420 
1.807728 5.167355 4.335047 99.961020 0.972956 -15.312010 
1.813405 5.169859 4.342067 99.982470 1.194016 -14.824460 
1.817720 5.172535 4.350102 100.020400 1.185169 -14.272830 
1.820810 5.176887 4.356820 100.009300 1.273910 -13.684880 
1.822150 5.181073 4.361986 99.984160 0.773521 -13.210780 
1.821233 5.183692 4.366027 99.881060 0.663298 -13.114620 
1.818542 5.185898 4.367740 100.037300 0.229440 -12.849670 
1.816645 5.188577 4.371607 100.315500 0.182914 -12.829220 
1.813931 5.191618 4.377865 100.352200 0.077602 -12.633670 
1.811174 5.195472 4.389059 100.349400 -0.228027 -11.729610 
1.807973 5.199815 4.404588 100.464500 -0.651093 -10.801150 
1.803609 5.203661 4.417367 100.689800 -1.053436 -10.057220 
1.801189 5.206126 4.425135 101.146000 -1.153320 -9.719971 
1.800279 5.207515 4.428915 101.736800 -1.168945 -9.517792 
1.800171 5.208629 4.427835 102.496200 -1.108185 -9.421906 
1.800207 5.209135 4.424454 103.477600 -0.926910 -9.487518 
1.800141 5.210218 4.420931 104.833500 -0.447022 -9.813995 
1.800884 5.211343 4.417548 106.220800 -0.131714 -9.971466 
1.799663 5.211887 4.415516 107.551700 0.033077 -9.997040 
1.796461 5.211836 4.415820 108.758300 0.211852 -10.085270 
1.793508 5.212120 4.416531 109.768100 0.187876 -9.914856 
1.790986 5.212357 4.419252 110.724400 0.160192 -9.744202 
1.788259 5.213656 4.422749 111.660700 0.315786 -9.649994 
1.786604 5.214463 4.427140 112.720100 0.180628 -9.315643 
1.785056 5.215401 4.430438 113.603400 0.381976 -9.106323 
1.785481 5.216819 4.431158 114.688000 0.655367 -9.080109 
1.785168 5.217658 4.429100 115.854000 1.145747 -9.239441 
1.785451 5.217610 4.425212 117.044700 1.475644 -9.240845 
1.785631 5.217112 4.421313 118.343100 1.757632 -9.591919 
1.784334 5.217237 4.415113 119.485400 2.173048 -9.831573 
1.783053 5.217197 4.409431 120.492300 2.338957 -10.104060 
1.780956 5.217079 4.402598 121.484400 2.312653 -10.277860 
1.778341 5.217429 4.396550 122.375800 2.404526 -10.638000 
